<svg xmlns="http://www.w3.org/2000/svg" xmlns:xlink="http://www.w3.org/1999/xlink" width="136" height="55" viewBox="0 0 136 61"><defs><filter id="b" width="184.5%" height="121.6%" x="-42.3%" y="-10.8%" filterUnits="objectBoundingBox"><feOffset in="SourceAlpha" result="shadowOffsetOuter1"/><feGaussianBlur in="shadowOffsetOuter1" result="shadowBlurOuter1" stdDeviation="1"/><feColorMatrix in="shadowBlurOuter1" values="0 0 0 0 0 0 0 0 0 0 0 0 0 0 0 0 0 0 0.114018794 0"/></filter><filter id="d" width="184.5%" height="137.8%" x="-42.3%" y="-18.9%" filterUnits="objectBoundingBox"><feOffset in="SourceAlpha" result="shadowOffsetOuter1"/><feGaussianBlur in="shadowOffsetOuter1" result="shadowBlurOuter1" stdDeviation="1"/><feColorMatrix in="shadowBlurOuter1" values="0 0 0 0 0 0 0 0 0 0 0 0 0 0 0 0 0 0 0.114018794 0"/></filter><path id="c" d="M22.599 17.388a7.097 7.097 0 017.097 7.097v20.686a7.097 7.097 0 01-7.097-7.097V17.388z"/><path id="e" d="M33.245 30.051a7.097 7.097 0 017.097 7.097v8.779a7.097 7.097 0 01-7.097-7.097v-8.78z"/><linearGradient id="a" x1="50%" x2="50%" y1="0%" y2="100%"><stop offset="0%" stop-color="#FFE452"/><stop offset="100%" stop-color="#FFC628"/></linearGradient></defs><g fill="none" fill-rule="evenodd"><path fill="url(#a)" d="M35.493 2.623l17.95 10.487a8.9 8.9 0 014.41 7.684v21.16a8.9 8.9 0 01-4.41 7.684l-17.95 10.487a8.9 8.9 0 01-8.979 0L8.564 49.638a8.9 8.9 0 01-4.41-7.684v-21.16a8.9 8.9 0 014.41-7.684l17.95-10.487a8.9 8.9 0 018.979 0z" transform="translate(-4.085 -1)"/><g transform="translate(-4.085 -1)"><use fill="#000" filter="url(#b)" xlink:href="#c"/><use fill="#FFF" xlink:href="#c"/></g><g transform="translate(-4.085 -1)"><use fill="#000" filter="url(#d)" xlink:href="#e"/><use fill="#FFF" xlink:href="#e"/></g><path fill="#1E2535" fill-rule="nonzero" d="M66.889 17.634v10.088c.932-2.068 3.55-2.94 5.307-2.94 4.267 0 6.777 2.831 6.777 7.657v7.947a1.894 1.894 0 01-1.9 1.887c-1.004 0-1.793-.87-1.793-1.887v-7.729c0-2.649-1.65-4.21-3.73-4.21-2.115 0-4.661 1.198-4.661 4.537v7.402a1.894 1.894 0 01-1.9 1.887c-1.005 0-1.794-.87-1.794-1.887V17.634c0-1.016.825-1.887 1.9-1.887 1.005 0 1.794.87 1.794 1.887zm14.937.653c0-1.343 1.147-2.359 2.474-2.359 1.363 0 2.438 1.016 2.438 2.36 0 1.342-1.075 2.358-2.438 2.358-1.327 0-2.474-1.016-2.474-2.359zm4.339 22.1a1.894 1.894 0 01-1.901 1.886c-1.004 0-1.793-.87-1.793-1.887V26.851c0-1.016.789-1.887 1.793-1.887 1.076 0 1.9.871 1.9 1.887v13.535zm17.841-13.064L98.52 40.568c-.43 1.052-1.148 1.705-2.224 1.705h-.215c-1.076 0-1.829-.653-2.259-1.705l-5.45-13.245c-.395-.944.215-2.141 1.219-2.323.968-.181 1.864.29 2.223 1.234l4.375 11.104 4.375-11.104c.358-.943 1.255-1.415 2.223-1.234 1.004.182 1.614 1.38 1.22 2.323zm4.574 4.899h9.718c-.359-2.65-2.26-4.173-4.77-4.173-2.582 0-4.59 1.56-4.948 4.173zm13.34 1.016c0 .98-.79 1.705-1.686 1.705H108.58c.358 2.613 2.438 4.246 5.128 4.246 1.757 0 2.76-.617 3.98-1.633.61-.508 1.614-.762 2.367-.145.681.544.717 1.67.071 2.359-1.685 1.778-4.123 2.685-6.598 2.685-4.769 0-8.606-3.52-8.606-8.89 0-5.371 3.837-8.782 8.606-8.782 4.662 0 8.248 3.266 8.391 8.455zm10.526-4.935c-3.156 0-4.483 3.193-4.483 7.693v4.39a1.894 1.894 0 01-1.9 1.887c-1.004 0-1.793-.87-1.793-1.887V26.851c0-1.016.789-1.887 1.793-1.887 1.075 0 1.9.871 1.9 1.887v2.177c.86-3.012 2.51-4.245 4.59-4.245.538 0 1.076.036 1.578.145a1.794 1.794 0 011.327 2.14c-.323 1.634-1.937 1.235-3.012 1.235z"/></g></svg>